<svg xmlns="http://www.w3.org/2000/svg" width="480" height="412" viewBox="0 0 480 412" fill="none" opacity=".3" style="animation: 18s linear infinite both a0_o;"><style>
@keyframes a0_o { 0% { opacity: .3; } 5.556% { opacity: 1; } 100% { opacity: 1; } }
@keyframes a1_t { 0% { transform: translate(29px,27px); } 44.444% { transform: translate(29px,27px); } 50% { transform: translate(29px,157px); } 55.556% { transform: translate(29px,157px); } 61.111% { transform: translate(29px,224px); } 66.667% { transform: translate(29px,224px); } 72.222% { transform: translate(29px,283px); } 77.778% { transform: translate(29px,283px); } 83.333% { transform: translate(29px,343px); } 100% { transform: translate(29px,343px); } }
@keyframes a1_fo { 0% { fill-opacity: 0; } 38.889% { fill-opacity: 0; } 44.444% { fill-opacity: .5; } 100% { fill-opacity: .5; } }
@keyframes a2_o { 0% { opacity: 1; } 16.667% { opacity: 1; } 22.222% { opacity: 0; } 100% { opacity: 0; } }
@keyframes a3_t { 0% { transform: translate(160.8px,149.9px); } 16.667% { transform: translate(160.8px,149.9px); animation-timing-function: cubic-bezier(.6,0,.4,1); } 22.222% { transform: translate(28px,309.2px); } 100% { transform: translate(28px,309.2px); } }
@keyframes a4_o { 0% { opacity: 0; } 27.778% { opacity: 0; } 33.333% { opacity: 1; } 100% { opacity: 1; } }
@keyframes a5_t { 0% { transform: translate(160.5px,41.5px) rotate(0deg) translate(-4px,-6px); } 38.889% { transform: translate(160.5px,41.5px) rotate(0deg) translate(-4px,-6px); } 83.333% { transform: translate(160.5px,41.5px) rotate(360deg) translate(-4px,-6px); } 100% { transform: translate(160.5px,41.5px) rotate(360deg) translate(-4px,-6px); } }
</style><g><rect width="480" height="412" fill="#fff" stroke="#c5defd" stroke-width="3"/><rect x="33" y="60" width="419" height="23" fill="#f9f9f9" stroke="#000" stroke-opacity="0"/><rect x="33" y="97" width="108" height="47" fill="#f9f9f9"/><rect x="176" y="97" width="107" height="47" fill="#f9f9f9"/><rect x="345" y="99" width="107" height="47" fill="#f9f9f9"/><g transform="translate(33,170)"><rect width="212" height="6.6" fill="#f9f9f9"/><rect y="13.2" width="212" height="6.6" fill="#f9f9f9"/><rect y="26.5" width="127.8" height="6.6" fill="#f9f9f9"/></g><rect x="28" y="235" width="424" height="6.6" fill="#f9f9f9"/><rect x="28" y="248.2" width="424" height="6.6" fill="#f9f9f9"/><rect x="28" y="261.5" width="255.6" height="6.6" fill="#f9f9f9"/><rect x="28" y="296" width="424" height="6.6" fill="#f9f9f9"/><rect x="28" y="309.2" width="424" height="6.6" fill="#f9f9f9"/><rect x="28" y="322.5" width="255.6" height="6.6" fill="#f9f9f9"/><rect x="270" y="173" width="182" height="6.6" fill="#f9f9f9"/><rect x="270" y="186.2" width="182" height="6.6" fill="#f9f9f9"/><rect x="270" y="199.5" width="109.7" height="6.6" fill="#f9f9f9"/><rect x="28" y="351" width="424" height="6.6" fill="#f9f9f9"/><rect x="28" y="364.2" width="424" height="6.6" fill="#f9f9f9"/><rect x="28" y="377.5" width="255.6" height="6.6" fill="#f9f9f9"/><path d="M38.2 28.9l5.5 14l5.6-14h2.9v17.1h-2.2v-6.6l.2-7.2l-5.6 13.8h-1.7l-5.6-13.8l.2 7.2v6.6h-2.2v-17.1h2.9Zm21.8 13.9l3-9.5h2.3l-5.1 14.7c-0.8 2.1-2.1 3.1-3.8 3.1h-0.4l-0.8-0.2v-1.7h.6c.7 0 1.3-0.1 1.7-0.4c.4-0.3 .8-0.9 1-1.7l.5-1.2l-4.5-12.6h2.4l3.1 9.5Zm11.3-2.2l.3 2.3l.5-2.1l3.3-11.9h1.9l3.3 11.9l.5 2.1l.4-2.3l2.6-11.7h2.3l-4.2 17.1h-2l-3.5-12.4l-0.3-1.3l-0.3 1.3l-3.6 12.4h-2.1l-4.1-17.1h2.3l2.7 11.7Zm22.1 5.6c-1.7 0-3.1-0.5-4.2-1.7c-1-1.1-1.6-2.6-1.6-4.5v-0.4c0-1.2 .3-2.4 .7-3.3c.5-1 1.2-1.8 2-2.4c.9-0.5 1.8-0.8 2.9-0.8c1.6 0 2.9 .5 3.8 1.6c.9 1.1 1.4 2.7 1.4 4.7v.9h-8.6c0 1.2 .4 2.2 1.1 3c.7 .8 1.6 1.2 2.6 1.2c.8 0 1.5-0.2 2-0.5c.5-0.3 1-0.7 1.4-1.2l1.3 1c-1.1 1.6-2.6 2.4-4.8 2.4Zm-0.2-11.3c-0.9 0-1.7 .3-2.2 .9c-0.6 .7-1 1.6-1.1 2.7h6.3v-0.2c-0.1-1.1-0.4-1.9-0.9-2.5c-0.5-0.6-1.2-0.9-2.1-0.9Zm18.4 4.9c0 1.9-0.4 3.5-1.3 4.7c-0.9 1.1-2.1 1.7-3.6 1.7c-1.6 0-2.8-0.5-3.7-1.7l-0.1 1.5h-2v-18h2.2v6.7c.8-1.1 2-1.6 3.6-1.6c1.5 0 2.7 .6 3.6 1.7c.9 1.2 1.3 2.8 1.3 4.8v.2Zm-2.1-0.2c0-1.5-0.3-2.7-0.9-3.5c-0.6-0.8-1.4-1.2-2.5-1.2c-1.4 0-2.4 .7-3 2v5.5c.6 1.3 1.7 2 3.1 2c1 0 1.8-0.4 2.4-1.2c.6-0.8 .9-2 .9-3.6Z" fill="#a5a5a5"/></g><path fill="#c5defd" fill-opacity="0" d="M0 0h424v64h-424Z" transform="translate(241,59) translate(-212,-32)" style="animation: 18s linear infinite both a1_t, 18s linear infinite both a1_fo;"/><rect width="480" height="412" fill="#c5defd" style="animation: 18s linear infinite both a2_o;"/><g transform="translate(303,189.9) translate(-142.2,-40)" style="animation: 18s linear infinite both a3_t;"><g filter="url(#filter0_d)" transform="translate(-28,-311)"><path d="M28 351c0-22.1 17.9-40 40-40h116c4.4 0 8 3.6 8 8v64c0 4.4-3.6 8-8 8h-116c-22.1 0-40-17.9-40-40Z" fill="#fff"/><path d="M130.8 356.8h5.4v1.2h-6.9v-11.4h1.5v10.2Zm8.5 1.2h-1.5v-8.5h1.5v8.5Zm-1.6-10.7c0-0.2 .1-0.4 .2-0.6c.2-0.2 .4-0.2 .7-0.2c.2 0 .5 0 .6 .2c.1 .2 .2 .4 .2 .6c0 .2-0.1 .4-0.2 .6c-0.1 .1-0.4 .2-0.6 .2c-0.3 0-0.5-0.1-0.7-0.2c-0.1-0.2-0.2-0.4-0.2-0.6Zm8.8 8.5c0-0.4-0.1-0.7-0.4-0.9c-0.3-0.3-0.8-0.5-1.6-0.6c-0.7-0.2-1.3-0.4-1.7-0.6c-0.4-0.2-0.8-0.5-1-0.8c-0.2-0.3-0.3-0.6-0.3-1c0-0.7 .3-1.3 .9-1.8c.6-0.5 1.3-0.7 2.3-0.7c.9 0 1.7 .2 2.3 .7c.6 .5 .9 1.2 .9 1.9h-1.5c0-0.4-0.1-0.7-0.5-1c-0.3-0.3-0.7-0.4-1.2-0.4c-0.6 0-1 .1-1.3 .3c-0.3 .3-0.4 .6-0.4 .9c0 .4 .1 .6 .4 .8c.3 .2 .8 .4 1.5 .5c.7 .2 1.3 .4 1.7 .6c.5 .2 .8 .5 1 .8c.3 .3 .4 .7 .4 1.2c0 .7-0.3 1.3-0.9 1.8c-0.6 .4-1.4 .7-2.4 .7c-0.7 0-1.3-0.2-1.8-0.4c-0.5-0.2-0.9-0.6-1.2-1c-0.3-0.4-0.5-0.9-0.5-1.4h1.5c0 .5 .2 .9 .6 1.2c.3 .2 .8 .4 1.4 .4c.5 0 1-0.1 1.3-0.4c.3-0.2 .5-0.5 .5-0.8Zm5.3-8.3v2h1.6v1.2h-1.6v5.2c0 .3 .1 .6 .2 .8c.2 .1 .4 .2 .7 .2c.2 0 .4 0 .7-0.1v1.2c-0.4 .1-0.7 .2-1.1 .2c-0.6 0-1.1-0.2-1.4-0.6c-0.4-0.4-0.5-1-0.5-1.7v-5.2h-1.6v-1.2h1.6v-2h1.4Zm6.8 10.7c-1.2 0-2.1-0.4-2.8-1.2c-0.7-0.7-1.1-1.7-1.1-3v-0.3c0-0.8 .2-1.5 .5-2.2c.3-0.7 .8-1.2 1.3-1.5c.6-0.4 1.2-0.6 1.9-0.6c1.1 0 2 .4 2.6 1.1c.6 .7 .9 1.7 .9 3.1v.6h-5.7c0 .8 .2 1.5 .7 2c.5 .5 1 .8 1.8 .8c.5 0 .9-0.1 1.3-0.3c.3-0.2 .6-0.5 .9-0.9l.9 .7c-0.7 1.1-1.8 1.7-3.2 1.7Zm-0.2-7.6c-0.6 0-1.1 .2-1.5 .6c-0.4 .4-0.6 1-0.7 1.8h4.2v-0.1c0-0.7-0.2-1.3-0.6-1.7c-0.3-0.4-0.8-0.6-1.4-0.6Zm6.5-1.1l.1 1.1c.6-0.8 1.5-1.2 2.5-1.2c1.8 0 2.7 1 2.7 3v5.6h-1.4v-5.6c0-0.6-0.2-1.1-0.5-1.3c-0.2-0.3-0.7-0.5-1.2-0.5c-0.5 0-0.9 .1-1.3 .4c-0.3 .2-0.6 .6-0.8 1v6h-1.4v-8.5h1.3Z" fill="#1b7df9"/></g><path d="M.5 40c0-21.8 17.7-39.5 39.5-39.5h116c4.1 0 7.5 3.4 7.5 7.5v64c0 4.1-3.4 7.5-7.5 7.5h-116c-21.8 0-39.5-17.7-39.5-39.5Z" stroke="#c5defd"/><g opacity="0" transform="translate(.5,.5)" style="animation: 18s linear infinite both a4_o;"><path d="M0 39.5c0-10.8 7.6-20.7 20.1-27.9c12.5-7.1 29.8-11.6 48.9-11.6h201.6c3.8 0 7.2 .9 9.6 2.3c2.4 1.4 3.8 3.2 3.8 5.2v64c0 2-1.4 3.8-3.8 5.2c-2.4 1.4-5.8 2.3-9.6 2.3h-201.6c-19.1 0-36.4-4.5-48.9-11.6c-12.5-7.2-20.1-17.1-20.1-27.9Z" fill="#fff" stroke="#c5defd"/><path d="M107.5 48.5l-9-7l9-7v14Z" stroke="#7e8c9f" stroke-width="2" stroke-linecap="round" stroke-linejoin="round"/><path d="M118.5 48.5l-9-7l9-7v14Z" stroke="#7e8c9f" stroke-width="2" stroke-linecap="round" stroke-linejoin="round"/><path d="M213.5 48.5l9-7l-9-7v14Z" stroke="#7e8c9f" stroke-width="2" stroke-linecap="round" stroke-linejoin="round"/><path d="M202.5 48.5l9-7l-9-7v14Z" stroke="#7e8c9f" stroke-width="2" stroke-linecap="round" stroke-linejoin="round"/><path d="M160.5 61.5c11 0 20-9 20-20c0-11-9-20-20-20c-11 0-20 9-20 20c0 11 9 20 20 20Z" fill="#c5defd"/><g transform="translate(160.5,41.5) translate(-4,-6)" style="animation: 18s linear infinite both a5_t;"><path d="M0 12v-12" stroke="#1b7df9" stroke-width="2" stroke-linecap="round" stroke-linejoin="round"/><path d="M8 12v-12" stroke="#1b7df9" stroke-width="2" stroke-linecap="round" stroke-linejoin="round"/></g><path d="M255.5 32.5h6v6" stroke="#7e8c9f" stroke-width="2" stroke-linecap="round" stroke-linejoin="round"/><path d="M249.5 50.5h-6v-6" stroke="#7e8c9f" stroke-width="2" stroke-linecap="round" stroke-linejoin="round"/><path d="M261.5 32.5l-7 7" stroke="#7e8c9f" stroke-width="2" stroke-linecap="round" stroke-linejoin="round"/><path d="M243.5 50.5l7-7" stroke="#7e8c9f" stroke-width="2" stroke-linecap="round" stroke-linejoin="round"/></g><g transform="translate(.5,.5)"><path d="M79 39.5c0 21.8-17.7 39.5-39.5 39.5c-21.8 0-39.5-17.7-39.5-39.5c0-21.8 17.7-39.5 39.5-39.5c21.8 0 39.5 17.7 39.5 39.5Z" fill="#fff" stroke="#c5defd"/><path d="M24.5 35.8v7.7" stroke="#1b7df9" stroke-width="1.5" stroke-linecap="round" stroke-linejoin="round"/><path d="M32 28.2v22.6" stroke="#1b7df9" stroke-width="1.5" stroke-linecap="round" stroke-linejoin="round"/><path d="M54.5 35.8v7.7" stroke="#1b7df9" stroke-width="1.5" stroke-linecap="round" stroke-linejoin="round"/><path d="M47 28.2v22.6" stroke="#1b7df9" stroke-width="1.5" stroke-linecap="round" stroke-linejoin="round"/><path d="M39.5 20.8v37.5" stroke="#1b7df9" stroke-width="1.5" stroke-linecap="round" stroke-linejoin="round"/></g></g><defs><filter id="filter0_d" x="16" y="297" width="196" height="112" filterUnits="userSpaceOnUse" color-interpolation-filters="sRGB"><feFlood flood-opacity="0" result="BackgroundImageFix"/><feColorMatrix in="SourceAlpha" values="0 0 0 0 0 0 0 0 0 0 0 0 0 0 0 0 0 0 127 0"/><feOffset dx="4" dy="2"/><feGaussianBlur stdDeviation="8"/><feColorMatrix values="0 0 0 0 0 0 0 0 0 0 0 0 0 0 0 0 0 0 0.08 0"/><feBlend in2="BackgroundImageFix" result="effect1_dropShadow"/><feBlend in="SourceGraphic" in2="effect1_dropShadow" result="shape"/></filter></defs></svg>